<svg width="71" height="19" viewBox="0 0 71 19" fill="none" xmlns="http://www.w3.org/2000/svg">
<path d="M3.29332 13.8506C2.6112 13.8506 2.0308 13.7497 1.55212 13.5479C1.0854 13.3342 0.732378 13.0019 0.493037 12.5509C0.265664 12.0879 0.151978 11.4826 0.151978 10.7348V0.675487H2.80865V10.3075C2.80865 10.5924 2.85652 10.8239 2.95226 11.0019C3.05996 11.1799 3.20357 11.3046 3.38307 11.3758C3.56258 11.4351 3.76602 11.4648 3.99339 11.4648H8.19381V13.8506H3.29332Z" fill="#00FFF5"/>
<path d="M14.6588 13.9396C13.869 13.9396 13.1928 13.8624 12.6304 13.7081C12.0679 13.542 11.6072 13.269 11.2482 12.8891C10.9012 12.5093 10.6439 12.0049 10.4763 11.3758C10.3208 10.7467 10.243 9.96925 10.243 9.04344C10.243 8.07014 10.3208 7.26896 10.4763 6.63988C10.6439 5.99893 10.9012 5.50041 11.2482 5.14433C11.6072 4.77638 12.0679 4.52118 12.6304 4.37875C13.2048 4.22445 13.8809 4.1473 14.6588 4.1473C15.4606 4.1473 16.1427 4.22445 16.7052 4.37875C17.2676 4.53305 17.7224 4.79418 18.0694 5.16213C18.4284 5.51822 18.6857 6.01673 18.8413 6.65768C19.0088 7.28676 19.0926 8.08201 19.0926 9.04344C19.0926 9.99299 19.0148 10.7882 18.8592 11.4292C18.7036 12.0583 18.4523 12.5568 18.1053 12.9247C17.7583 13.2927 17.2975 13.5538 16.7231 13.7081C16.1607 13.8624 15.4726 13.9396 14.6588 13.9396ZM14.6588 11.8387C14.9819 11.8387 15.2512 11.809 15.4666 11.7497C15.6939 11.6903 15.8735 11.5716 16.0051 11.3936C16.1487 11.2037 16.2564 10.9188 16.3282 10.539C16.4 10.1592 16.4359 9.66065 16.4359 9.04344C16.4359 8.41436 16.4 7.91584 16.3282 7.54789C16.2564 7.16807 16.1487 6.88914 16.0051 6.71109C15.8735 6.52118 15.6939 6.39655 15.4666 6.33721C15.2512 6.27786 14.9819 6.24819 14.6588 6.24819C14.3477 6.24819 14.0784 6.27786 13.851 6.33721C13.6356 6.39655 13.4561 6.52118 13.3125 6.71109C13.1689 6.88914 13.0612 7.16807 12.9894 7.54789C12.9296 7.91584 12.8996 8.41436 12.8996 9.04344C12.8996 9.66065 12.9296 10.1592 12.9894 10.539C13.0612 10.9188 13.1689 11.2037 13.3125 11.3936C13.4561 11.5716 13.6356 11.6903 13.851 11.7497C14.0784 11.809 14.3477 11.8387 14.6588 11.8387Z" fill="#00FFF5"/>
<path d="M23.7991 13.9574C23.0691 13.9574 22.4768 13.7437 22.022 13.3164C21.5673 12.8891 21.3399 12.2957 21.3399 11.536V10.6814C21.3399 9.95738 21.5972 9.36391 22.1118 8.901C22.6263 8.42623 23.4281 8.18884 24.5171 8.18884H26.9764V7.53009C26.9764 7.23335 26.9225 6.99003 26.8148 6.80012C26.7071 6.59833 26.5037 6.4559 26.2045 6.37282C25.9173 6.27786 25.4745 6.23038 24.8761 6.23038H21.9861V4.69923C22.4528 4.55679 22.9913 4.43216 23.6017 4.32534C24.2239 4.21851 24.9719 4.1651 25.8455 4.1651C26.6473 4.1651 27.3294 4.26006 27.8918 4.44997C28.4663 4.63988 28.8971 4.96629 29.1843 5.4292C29.4834 5.8921 29.633 6.53305 29.633 7.35204V13.8506H27.5328L27.102 12.8357C27.0182 12.9307 26.8746 13.0375 26.6712 13.1562C26.4678 13.2749 26.2165 13.3995 25.9173 13.5301C25.6301 13.6488 25.301 13.7497 24.93 13.8328C24.571 13.9158 24.194 13.9574 23.7991 13.9574ZM25.1454 12.1236C25.2651 12.1236 25.3967 12.1117 25.5403 12.0879C25.6959 12.0523 25.8515 12.0167 26.007 11.9811C26.1746 11.9336 26.3242 11.8921 26.4558 11.8565C26.5994 11.809 26.7131 11.7675 26.7969 11.7319C26.8926 11.6963 26.9524 11.6725 26.9764 11.6606V9.43513L25.3608 9.54195C24.8941 9.57756 24.5471 9.69626 24.3197 9.89804C24.1043 10.0998 23.9966 10.3728 23.9966 10.717V11.1087C23.9966 11.3461 24.0444 11.542 24.1402 11.6963C24.2479 11.8506 24.3855 11.9633 24.553 12.0345C24.7325 12.0939 24.93 12.1236 25.1454 12.1236Z" fill="#00FFF5"/>
<path d="M35.6789 13.9574C34.9249 13.9574 34.2907 13.8031 33.7761 13.4945C33.2615 13.174 32.8726 12.6636 32.6093 11.9633C32.358 11.2512 32.2324 10.3194 32.2324 9.16807C32.2324 7.98112 32.3401 7.0197 32.5555 6.28379C32.7828 5.54789 33.1598 5.00783 33.6863 4.66362C34.2129 4.3194 34.9369 4.1473 35.8584 4.1473C36.3011 4.1473 36.7379 4.19477 37.1687 4.28973C37.5996 4.37282 37.9825 4.47371 38.3176 4.5924V0.265991H40.9922V13.8506H38.7484L38.3176 12.9425C38.1141 13.1325 37.8628 13.3046 37.5637 13.4589C37.2764 13.6132 36.9713 13.7378 36.6482 13.8328C36.3251 13.9158 36.002 13.9574 35.6789 13.9574ZM36.6123 11.8387C36.9713 11.8387 37.2944 11.7793 37.5816 11.6606C37.8808 11.542 38.1261 11.4233 38.3176 11.3046V6.49744C38.0782 6.41436 37.8269 6.33127 37.5637 6.24819C37.3004 6.1651 37.0192 6.12356 36.72 6.12356C36.2772 6.12356 35.9182 6.20071 35.643 6.35501C35.3797 6.50931 35.1882 6.80012 35.0685 7.22741C34.9489 7.64285 34.889 8.24819 34.889 9.04344C34.889 9.77934 34.9429 10.355 35.0506 10.7704C35.1703 11.174 35.3557 11.4529 35.6071 11.6072C35.8584 11.7615 36.1934 11.8387 36.6123 11.8387Z" fill="#00FFF5"/>
<path d="M44.2055 2.8832C43.9542 2.8832 43.8285 2.76451 43.8285 2.52712V0.782311C43.8285 0.533053 43.9542 0.408424 44.2055 0.408424H46.2518C46.3595 0.408424 46.4433 0.444032 46.5032 0.515249C46.563 0.586466 46.5929 0.675486 46.5929 0.782311V2.52712C46.5929 2.76451 46.4792 2.8832 46.2518 2.8832H44.2055ZM43.8824 13.8506V4.28973H46.5391V13.8506H43.8824Z" fill="#00FFF5"/>
<path d="M49.4779 13.8506V4.28973H51.6679L52.1346 5.26896C52.4936 4.97222 52.9423 4.71109 53.4809 4.48558C54.0313 4.24819 54.5938 4.12949 55.1682 4.12949C55.958 4.12949 56.5683 4.2838 56.9992 4.5924C57.43 4.90101 57.7291 5.31644 57.8967 5.83869C58.0762 6.34908 58.1659 6.91881 58.1659 7.54789V13.8506H55.5093V7.88617C55.5093 7.57756 55.4494 7.32237 55.3298 7.12059C55.2221 6.91881 55.0665 6.76451 54.863 6.65768C54.6596 6.55086 54.4143 6.49744 54.1271 6.49744C53.8758 6.49744 53.6304 6.52712 53.3911 6.58647C53.1637 6.64581 52.9423 6.7289 52.7269 6.83572C52.5235 6.94255 52.326 7.06718 52.1346 7.20961V13.8506H49.4779Z" fill="#00FFF5"/>
<path d="M63.5462 18.266C62.9359 18.266 62.3914 18.177 61.9127 17.9989C61.446 17.8209 61.075 17.5598 60.7998 17.2155C60.5245 16.8832 60.3869 16.4678 60.3869 15.9693V15.6844C60.3869 15.174 60.5305 14.7348 60.8177 14.3669C61.1169 14.0108 61.4998 13.7378 61.9665 13.5479C62.4333 13.358 62.9299 13.263 63.4564 13.263L64.2463 14.082C63.983 14.082 63.7496 14.1236 63.5462 14.2066C63.3427 14.2897 63.1812 14.4084 63.0615 14.5627C62.9538 14.7289 62.9 14.9307 62.9 15.1681V15.3639C62.9 15.7081 63.0196 15.9693 63.259 16.1473C63.4983 16.3253 63.8394 16.4144 64.2822 16.4144H66.1131C66.5559 16.4144 66.9089 16.3253 67.1722 16.1473C67.4474 15.9811 67.5851 15.7259 67.5851 15.3817V15.0969C67.5851 14.8832 67.5312 14.6992 67.4235 14.5449C67.3278 14.4025 67.1782 14.2897 66.9747 14.2066C66.7833 14.1236 66.52 14.082 66.1849 14.082H64.0488C62.9718 14.082 62.17 13.8862 61.6434 13.4945C61.1288 13.0909 60.8716 12.5983 60.8716 12.0167C60.8716 11.5301 61.0092 11.1265 61.2844 10.806C61.5716 10.4737 61.9665 10.2541 62.4692 10.1473C62.0862 9.94552 61.7811 9.70219 61.5537 9.41733C61.3263 9.12059 61.1648 8.80605 61.069 8.47371C60.9733 8.12949 60.9254 7.77341 60.9254 7.40546C60.9254 6.70516 61.069 6.12356 61.3562 5.66065C61.6554 5.19774 62.0982 4.85353 62.6846 4.62801C63.2829 4.40249 64.0309 4.28973 64.9284 4.28973H70.152V5.73187L68.68 5.99893C68.7877 6.11762 68.8954 6.26006 69.0031 6.42623C69.1108 6.58053 69.2006 6.78825 69.2724 7.04937C69.3562 7.29863 69.3981 7.61317 69.3981 7.99299C69.3981 8.53899 69.2784 9.03157 69.039 9.47074C68.8117 9.90991 68.4407 10.2601 67.9261 10.5212C67.4235 10.7823 66.7533 10.9129 65.9157 10.9129H64.2104C63.8872 10.9129 63.624 10.9604 63.4205 11.0553C63.2171 11.1503 63.1154 11.3224 63.1154 11.5716C63.1154 11.7734 63.1991 11.9158 63.3667 11.9989C63.5462 12.0701 63.7436 12.1058 63.9591 12.1058H66.6157C67.3577 12.1058 67.9859 12.2007 68.5005 12.3906C69.0151 12.5805 69.41 12.8891 69.6853 13.3164C69.9605 13.7319 70.0981 14.2838 70.0981 14.9722V15.2393C70.0981 16.177 69.7989 16.9129 69.2006 17.447C68.6022 17.993 67.6808 18.266 66.4362 18.266H63.5462ZM64.5873 8.93661H65.6105C65.9815 8.93661 66.2627 8.8832 66.4542 8.77638C66.6576 8.65768 66.7952 8.50338 66.867 8.31347C66.9508 8.11169 66.9927 7.88023 66.9927 7.61911C66.9927 7.28676 66.9388 7.0197 66.8311 6.81792C66.7354 6.61614 66.5918 6.47371 66.4003 6.39062C66.2088 6.30753 65.9695 6.26599 65.6823 6.26599H64.6771C64.2223 6.26599 63.8813 6.36688 63.6539 6.56866C63.4265 6.75857 63.3128 7.09685 63.3128 7.5835C63.3128 8.04641 63.4205 8.39062 63.6359 8.61614C63.8513 8.82979 64.1685 8.93661 64.5873 8.93661Z" fill="#00FFF5"/>
</svg>
